<svg id="Layer_1" data-name="Layer 1" xmlns="http://www.w3.org/2000/svg" viewBox="0 0 138.97 134.13"><title>logo1</title><path d="M149,146.93l-9.12-8.83L10.52,12.94V147.06h138.6ZM20.14,137.44V35.64l105.19,101.8Z" transform="translate(-10.52 -12.94)" fill="#222327"/><polygon points="138.97 133.99 138.47 133.99 138.6 134.13 129.34 134.13 129.34 21.98 76.18 68.67 69.83 61.44 138.97 0.72 138.97 133.99" fill="#222327"/><polyline points="21.05 60.52 21.05 115.32 87.65 115.32 21.42 49.09 21.05 62.73" fill="#222327"/><polygon points="90.54 72.44 117.63 45.34 117.63 101.56 90.54 72.44" fill="#222327"/><path d="M144.67,142.25" transform="translate(-10.52 -12.94)" fill="none" stroke="#231f20" stroke-miterlimit="10" stroke-width="10"/><polygon points="138.6 134.13 110.61 134.13 110.61 133.99 138.47 133.99 138.6 134.13" fill="#231f20"/></svg>